<svg width="25" height="20" viewBox="0 0 25 20" fill="none" xmlns="http://www.w3.org/2000/svg">
<path d="M23.3871 0H1.6129C1.18531 0.000536415 0.775384 0.163448 0.473027 0.453009C0.17067 0.74257 0.000560118 1.13515 0 1.54465V14.6741C0.000560118 15.0836 0.17067 15.4762 0.473027 15.7658C0.775384 16.0553 1.18531 16.2183 1.6129 16.2188H9.92439L9.38659 17.7634H8.06452C7.95757 17.7634 7.85501 17.8041 7.77939 17.8765C7.70377 17.949 7.66129 18.0472 7.66129 18.1496V18.9219H4.03226C3.92532 18.9219 3.82275 18.9626 3.74713 19.035C3.67151 19.1074 3.62903 19.2057 3.62903 19.3081C3.62903 19.4105 3.67151 19.5087 3.74713 19.5811C3.82275 19.6536 3.92532 19.6942 4.03226 19.6942H21.7742C21.8811 19.6942 21.9837 19.6536 22.0593 19.5811C22.1349 19.5087 22.1774 19.4105 22.1774 19.3081C22.1774 19.2057 22.1349 19.1074 22.0593 19.035C21.9837 18.9626 21.8811 18.9219 21.7742 18.9219H17.3387V18.1496C17.3387 18.0472 17.2962 17.949 17.2206 17.8765C17.145 17.8041 17.0424 17.7634 16.9355 17.7634H15.6134L15.0756 16.2188H23.3871C23.8147 16.2183 24.2246 16.0553 24.527 15.7658C24.8293 15.4762 24.9994 15.0836 25 14.6741V1.54465C24.9994 1.13515 24.8293 0.74257 24.527 0.453009C24.2246 0.163448 23.8147 0.000536415 23.3871 0ZM16.5323 18.5358V18.9219H8.46774V18.5358H16.5323ZM10.2369 17.7634L10.7747 16.2188H14.2253L14.7631 17.7634H10.2369ZM24.1935 14.6741C24.1933 14.8789 24.1082 15.0752 23.957 15.22C23.8059 15.3647 23.6009 15.4462 23.3871 15.4465H1.6129C1.3991 15.4462 1.19414 15.3647 1.04297 15.22C0.891787 15.0752 0.806732 14.8789 0.806452 14.6741V13.9018H24.1935V14.6741ZM6.8377 9.65404L6.68649 13.1295H6.21673L6.06552 9.65404H6.8377ZM6.12097 8.88172L6.39012 7.33707H6.5131L6.78226 8.88172H6.12097ZM6.45161 6.56475C6.01462 6.56475 5.64516 6.03426 5.64516 5.40626C5.64516 5.00996 6.06754 4.4341 6.4506 4.02815C6.79587 4.395 7.25806 4.98148 7.25806 5.40626C7.25806 6.03426 6.88861 6.56475 6.45161 6.56475ZM10.8397 5.79242L10.8871 5.88366V6.17859H9.27419V5.88366L9.32157 5.79242H10.8397ZM9.7248 5.0201L10.0806 4.33901L10.4365 5.0201H9.7248ZM10.8871 6.95091V13.0812C10.8873 13.0974 10.8884 13.1135 10.8906 13.1295H9.27067C9.27286 13.1135 9.27404 13.0974 9.27419 13.0812V6.95091H10.8871ZM14.5161 5.40626H15.7258V6.17859H15.3226C15.2156 6.17859 15.1131 6.21927 15.0375 6.29169C14.9618 6.36411 14.9194 6.46233 14.9194 6.56475C14.9194 6.66716 14.9618 6.76539 15.0375 6.83781C15.1131 6.91022 15.2156 6.95091 15.3226 6.95091H15.7258V7.72323H14.5161C14.4092 7.72323 14.3066 7.76392 14.231 7.83634C14.1554 7.90876 14.1129 8.00698 14.1129 8.10939C14.1129 8.21181 14.1554 8.31003 14.231 8.38245C14.3066 8.45487 14.4092 8.49556 14.5161 8.49556H15.7258V9.26788H15.3226C15.2156 9.26788 15.1131 9.30856 15.0375 9.38098C14.9618 9.4534 14.9194 9.55162 14.9194 9.65404C14.9194 9.75646 14.9618 9.85468 15.0375 9.9271C15.1131 9.99952 15.2156 10.0402 15.3226 10.0402H15.7258V10.8125H14.5161C14.4092 10.8125 14.3066 10.8532 14.231 10.9256C14.1554 10.998 14.1129 11.0963 14.1129 11.1987C14.1129 11.3011 14.1554 11.3993 14.231 11.4717C14.3066 11.5442 14.4092 11.5848 14.5161 11.5848H15.7258V13.1295H12.9032V3.86162H15.7258V4.63394H14.5161C14.4092 4.63394 14.3066 4.67462 14.231 4.74704C14.1554 4.81946 14.1129 4.91768 14.1129 5.0201C14.1129 5.12252 14.1554 5.22074 14.231 5.29316C14.3066 5.36558 14.4092 5.40626 14.5161 5.40626ZM19.3548 10.0402V13.0812C19.355 13.0974 19.3562 13.1135 19.3584 13.1295H17.7384C17.7406 13.1135 17.7418 13.0974 17.7419 13.0812V10.0402H19.3548ZM17.7419 9.26788V8.97295L18.5484 7.4283L19.3548 8.97295V9.26788H17.7419ZM24.1935 13.1295H20.1578C20.16 13.1135 20.1611 13.0974 20.1613 13.0812V8.88172C20.1612 8.82176 20.1467 8.76263 20.119 8.70891L18.9093 6.39194C18.8757 6.32781 18.8242 6.27389 18.7604 6.23621C18.6967 6.19853 18.6233 6.17857 18.5484 6.17857C18.4735 6.17857 18.4001 6.19853 18.3363 6.23621C18.2726 6.27389 18.2211 6.32781 18.1875 6.39194L16.9778 8.70891C16.95 8.76263 16.9355 8.82176 16.9355 8.88172V13.0812C16.9356 13.0974 16.9368 13.1135 16.939 13.1295H16.5323V3.47545C16.5323 3.37304 16.4898 3.27482 16.4142 3.2024C16.3385 3.12998 16.236 3.08929 16.129 3.08929H12.5C12.3931 3.08929 12.2905 3.12998 12.2149 3.2024C12.1393 3.27482 12.0968 3.37304 12.0968 3.47545V13.1295H11.69C11.6922 13.1135 11.6934 13.0974 11.6935 13.0812V5.79242C11.6935 5.73247 11.679 5.67334 11.6512 5.61962L10.4415 3.30265C10.408 3.23852 10.3564 3.1846 10.2927 3.14692C10.229 3.10923 10.1555 3.08928 10.0806 3.08928C10.0057 3.08928 9.93232 3.10923 9.86858 3.14692C9.80485 3.1846 9.75332 3.23852 9.71976 3.30265L8.51008 5.61962C8.48229 5.67334 8.4678 5.73247 8.46774 5.79242V13.0812C8.4679 13.0974 8.46908 13.1135 8.47127 13.1295H7.49345L7.66079 9.28381C7.66129 9.27512 7.66079 9.26643 7.66079 9.25726V9.24567C7.65985 9.23208 7.65817 9.21855 7.65575 9.20513V9.20416L7.28276 7.06048C7.75101 6.72211 8.06452 6.10715 8.06452 5.40626C8.06452 4.41383 6.86341 3.31471 6.72631 3.19259C6.6516 3.12627 6.55348 3.08942 6.45161 3.08942C6.34974 3.08942 6.25163 3.12627 6.17692 3.19259C6.03982 3.31471 4.83871 4.41383 4.83871 5.40626C4.83871 6.10715 5.15222 6.72211 5.62046 7.06048L5.24748 9.20416V9.20513C5.24506 9.21855 5.24337 9.23208 5.24244 9.24567V9.25726C5.24244 9.26643 5.24194 9.27512 5.24244 9.28381L5.40978 13.1295H0.806452V1.54465C0.806732 1.3399 0.891787 1.14361 1.04297 0.998828C1.19414 0.854047 1.3991 0.772591 1.6129 0.772323H23.3871C23.6009 0.772591 23.8059 0.854047 23.957 0.998828C24.1082 1.14361 24.1933 1.3399 24.1935 1.54465V13.1295Z" fill="black"/>
<path d="M4.4355 14.288H2.01614C1.9092 14.288 1.80664 14.3286 1.73102 14.4011C1.6554 14.4735 1.61292 14.5717 1.61292 14.6741C1.61292 14.7765 1.6554 14.8748 1.73102 14.9472C1.80664 15.0196 1.9092 15.0603 2.01614 15.0603H4.4355C4.54244 15.0603 4.645 15.0196 4.72062 14.9472C4.79624 14.8748 4.83872 14.7765 4.83872 14.6741C4.83872 14.5717 4.79624 14.4735 4.72062 14.4011C4.645 14.3286 4.54244 14.288 4.4355 14.288Z" fill="black"/>
<path d="M6.04839 14.288H5.64517C5.53823 14.288 5.43567 14.3286 5.36005 14.4011C5.28443 14.4735 5.24194 14.5717 5.24194 14.6741C5.24194 14.7765 5.28443 14.8748 5.36005 14.9472C5.43567 15.0196 5.53823 15.0603 5.64517 15.0603H6.04839C6.15534 15.0603 6.2579 15.0196 6.33352 14.9472C6.40914 14.8748 6.45162 14.7765 6.45162 14.6741C6.45162 14.5717 6.40914 14.4735 6.33352 14.4011C6.2579 14.3286 6.15534 14.288 6.04839 14.288Z" fill="black"/>
<path d="M10.0807 7.33704C9.97371 7.33704 9.87115 7.37772 9.79553 7.45014C9.71991 7.52256 9.67743 7.62078 9.67743 7.7232V11.971C9.67743 12.0734 9.71991 12.1716 9.79553 12.244C9.87115 12.3165 9.97371 12.3571 10.0807 12.3571C10.1876 12.3571 10.2902 12.3165 10.3658 12.244C10.4414 12.1716 10.4839 12.0734 10.4839 11.971V7.7232C10.4839 7.62078 10.4414 7.52256 10.3658 7.45014C10.2902 7.37772 10.1876 7.33704 10.0807 7.33704Z" fill="black"/>
<path d="M18.5484 10.4264C18.4415 10.4264 18.3389 10.4671 18.2633 10.5395C18.1877 10.6119 18.1452 10.7101 18.1452 10.8126V11.971C18.1452 12.0735 18.1877 12.1717 18.2633 12.2441C18.3389 12.3165 18.4415 12.3572 18.5484 12.3572C18.6553 12.3572 18.7579 12.3165 18.8335 12.2441C18.9091 12.1717 18.9516 12.0735 18.9516 11.971V10.8126C18.9516 10.7101 18.9091 10.6119 18.8335 10.5395C18.7579 10.4671 18.6553 10.4264 18.5484 10.4264Z" fill="black"/>
<path d="M2.01614 2.317H5.24195C5.34889 2.317 5.45145 2.27632 5.52707 2.2039C5.60269 2.13148 5.64517 2.03326 5.64517 1.93084C5.64517 1.82842 5.60269 1.7302 5.52707 1.65778C5.45145 1.58536 5.34889 1.54468 5.24195 1.54468H2.01614C1.9092 1.54468 1.80664 1.58536 1.73102 1.65778C1.6554 1.7302 1.61292 1.82842 1.61292 1.93084C1.61292 2.03326 1.6554 2.13148 1.73102 2.2039C1.80664 2.27632 1.9092 2.317 2.01614 2.317Z" fill="black"/>
<path d="M2.01614 3.47545H2.82259C2.92953 3.47545 3.0321 3.43476 3.10772 3.36234C3.18334 3.28992 3.22582 3.1917 3.22582 3.08929C3.22582 2.98687 3.18334 2.88865 3.10772 2.81623C3.0321 2.74381 2.92953 2.70312 2.82259 2.70312H2.01614C1.9092 2.70312 1.80664 2.74381 1.73102 2.81623C1.6554 2.88865 1.61292 2.98687 1.61292 3.08929C1.61292 3.1917 1.6554 3.28992 1.73102 3.36234C1.80664 3.43476 1.9092 3.47545 2.01614 3.47545Z" fill="black"/>
<path d="M21.371 12.3572H22.9839C23.0908 12.3572 23.1934 12.3165 23.269 12.2441C23.3446 12.1716 23.3871 12.0734 23.3871 11.971C23.3871 11.8686 23.3446 11.7704 23.269 11.6979C23.1934 11.6255 23.0908 11.5848 22.9839 11.5848H21.371C21.264 11.5848 21.1615 11.6255 21.0858 11.6979C21.0102 11.7704 20.9677 11.8686 20.9677 11.971C20.9677 12.0734 21.0102 12.1716 21.0858 12.2441C21.1615 12.3165 21.264 12.3572 21.371 12.3572Z" fill="black"/>
<path d="M22.5807 11.1987H22.9839C23.0908 11.1987 23.1934 11.158 23.269 11.0856C23.3446 11.0132 23.3871 10.915 23.3871 10.8126C23.3871 10.7101 23.3446 10.6119 23.269 10.5395C23.1934 10.4671 23.0908 10.4264 22.9839 10.4264H22.5807C22.4737 10.4264 22.3712 10.4671 22.2955 10.5395C22.2199 10.6119 22.1774 10.7101 22.1774 10.8126C22.1774 10.915 22.2199 11.0132 22.2955 11.0856C22.3712 11.158 22.4737 11.1987 22.5807 11.1987Z" fill="black"/>
</svg>
