<svg width="25" height="23" viewBox="0 0 25 23" fill="none" xmlns="http://www.w3.org/2000/svg">
<path d="M0 0V19.652H8.02402V21.0572H6.55742V22.4601H18.4425V21.0572H16.9759V19.652H25V0H0ZM15.511 21.0572H9.48897V19.652H15.511V21.0572H15.511ZM23.5351 18.2491H1.46489V15.4399H23.5351V18.2491H23.5351ZM23.5351 14.037H1.46489V1.40295H23.5351V14.037H23.5351Z" fill="black"/>
<path d="M9.95816 5.18433L8.92232 4.19232L5.23877 7.71998L8.92232 11.2476L9.95816 10.2556L7.31045 7.71998L9.95816 5.18433Z" fill="black"/>
<path d="M16.0777 4.19232L15.0419 5.18433L17.6896 7.71998L15.0419 10.2556L16.0777 11.2476L19.7612 7.71998L16.0777 4.19232Z" fill="black"/>
<path d="M12.6319 3.48979L10.9313 11.677L12.3681 11.9507L14.0687 3.7635L12.6319 3.48979Z" fill="black"/>
</svg>
