<svg width="19" height="20" viewBox="0 0 19 20" fill="none" xmlns="http://www.w3.org/2000/svg">
<path d="M-4.37114e-07 9.89634C-1.95608e-07 15.1875 4.36167 19.4731 9.74107 19.4731C14.0457 19.4731 17.6962 16.7294 18.9832 12.925C19.0749 12.4462 18.7734 12.2706 18.5148 12.2706C18.2835 12.2706 17.6706 12.2786 16.8585 12.2826C17.4459 14.9465 15.5517 15.5083 15.5517 15.5083C14.4274 15.9441 14.1267 16.5738 14.1267 16.5738C13.5228 17.4413 13.5352 16.5067 13.5352 16.5067C13.603 15.5451 14.5389 15.0399 14.5389 15.0399C16.0283 14.1859 15.5979 12.7981 15.3493 12.2506C14.719 12.1644 14.2903 11.9178 14.0466 11.6441C13.8029 13.771 12.9652 16.0063 9.23304 16.0063C8.16988 16.0063 7.30085 15.6352 6.61933 15.0207C6.37316 15.1285 5.3827 15.4517 4.04116 14.9369C4.04116 14.9369 3.78012 14.1349 5.03988 12.3033C4.82345 11.5372 4.71606 10.7231 4.7111 9.90911C4.71606 9.09508 4.82345 8.28105 5.03988 7.5149C3.78012 5.69531 4.04116 4.89325 4.04116 4.89325C5.3827 4.3785 6.37316 4.70172 6.61933 4.79748C7.30085 4.18696 8.16988 3.81586 9.23304 3.81586C12.9752 3.81586 13.7987 6.05444 14.0383 8.18528C14.3307 7.85009 14.928 7.53884 15.8408 7.53884C17.1444 7.53884 18.1918 7.55082 18.5082 7.55082C18.7635 7.55082 19.0683 7.38322 18.9708 6.89241C17.692 3.06089 14.0391 0.319528 9.74107 0.319528C4.36167 0.319528 -6.7851e-07 4.60754 -4.37114e-07 9.89634Z" fill="white"/>
</svg>
