<svg width="20" height="20" viewBox="0 0 20 20" fill="none" xmlns="http://www.w3.org/2000/svg">
<g clip-path="url(#clip0_95280_10)">
<path d="M1.4325 20C0.64125 20 0 19.3425 0 18.5313L0 1.46875C0 0.6575 0.64125 0 1.4325 0H18.5675C19.3588 0 20 0.6575 20 1.46875V18.5313C20 19.3425 19.3588 20 18.5675 20H1.4325ZM16.7425 13.8213H7.71125V16.8225H16.7425V13.8213ZM6.4775 15.3212C6.4775 14.275 5.785 13.6238 4.9175 13.6238C4.03125 13.6425 3.3575 14.2737 3.3575 15.3012C3.3575 16.3287 4.0325 17 4.9175 17C5.785 17 6.4775 16.3487 6.4775 15.3413V15.3212ZM16.7425 9.18625L11.6988 9.18625C11.4288 9.18625 11.1587 9.16625 10.9662 9.08625C10.4275 8.87 9.86875 8.37625 9.86875 7.54625C9.86875 6.46 10.6963 6.02625 11.9113 6.02625L16.7425 6.02625V3.025H11.5625C8.7875 3.025 7.4975 4.505 7.4975 6.48C7.4975 8.0725 8.3725 8.78625 8.98875 9.18625H9.02V9.20625C9.00957 9.19961 8.99915 9.19294 8.98875 9.18625H7.71125V12.1863C8.55875 12.1488 16.7425 12.1863 16.7425 12.1863V9.18625Z" fill="white"/>
</g>
<defs>
<clipPath id="clip0_95280_10">
<rect width="20" height="20" fill="white" transform="matrix(0 -1 1 0 0 20)"/>
</clipPath>
</defs>
</svg>
