<svg width="46" height="63" viewBox="0 0 46 63" fill="none" xmlns="http://www.w3.org/2000/svg">
<path d="M22.9719 62.2493L4.18634 57.2495L0 12.2336H46.0001L41.8093 57.2427L22.9719 62.2493Z" fill="#4353AD"/>
<path d="M38.2216 54.3767L41.8025 15.9145H22.9999V58.4224L38.2216 54.3767" fill="#485FB5"/>
<path d="M23 46.9488L22.9747 46.9551L16.5613 45.2948L16.1513 40.8916H10.3704L11.1771 49.5604L22.9735 52.7L23 52.693V46.9488ZM8.55991 21.4354L9.08337 26.9563H23V21.4354H8.55991ZM9.59704 32.6099L10.1131 38.131H23V32.6099H9.59704" fill="#EDEDED"/>
<path d="M27.5654 0.000163005H34.5403V2.4317H30.4824V2.91824H34.5403V8.51074H27.5654V5.95738H31.6236V5.47122H27.5656V0.000163005H27.5654ZM19.1956 0.000163005H26.1703V2.4317H22.1124V2.91824H26.1703V8.51074H19.1958V5.95738H23.2538V5.47122H19.1955V0.000163005H19.1956ZM10.8259 0.000163005H17.8005V2.79642H13.7427V5.59305H17.8009V8.3893H10.8259V0.000163005Z" fill="#AAAAAA"/>
<path d="M36.3662 32.6102L37.4057 21.4357H22.9802V26.9566H31.0947L30.5708 32.6102H22.9802V38.1313H30.0715L29.4026 45.2918L22.98 46.9536V52.6975L34.7856 49.5607L34.872 48.6281L36.2257 34.0928L36.3662 32.6102Z" fill="white"/>
</svg>
