<svg width="162" height="36" viewBox="0 0 162 36" fill="none" xmlns="http://www.w3.org/2000/svg">
<path fill-rule="evenodd" clip-rule="evenodd" d="M154.373 2.95728L161.139 2.99288C161.139 2.99288 148.56 19.3167 147.533 20.647C147.199 21.0779 146.692 21.5425 146.435 22.1184C145.786 23.5663 145.119 26.7421 145.119 26.7421L138.928 26.7715C138.928 26.7715 139.891 23.4612 139.851 21.698C139.816 20.1575 138.995 18.6191 138.535 17.0742C138.069 15.5106 137.437 12.4504 137.437 12.4504H143.802L144.68 15.8132L154.373 2.95728Z" fill="#CFCFCF"/>
<path fill-rule="evenodd" clip-rule="evenodd" d="M141.561 6.39981C142.81 7.12079 143.576 11.0971 143.576 11.0971C143.576 11.0971 137.043 11.1894 133.487 11.1894H130.415L126.684 26.7421H120.979C120.979 26.7421 124.529 9.84033 125.368 6.77603C125.64 5.78416 127.229 5.95417 129.912 5.95417H134.198C136.966 5.95417 140.201 5.61593 141.561 6.39981Z" fill="#CFCFCF"/>
<path fill-rule="evenodd" clip-rule="evenodd" d="M114.998 13.9743C114.998 13.9743 115.176 12.9759 114.395 11.82C113.728 10.8344 113.111 10.6053 111.356 10.5528C106.398 10.4036 106.494 13.9218 106.494 13.9218L114.998 13.9743ZM120.375 9.94545C121.102 12.4549 119.717 18.3521 119.717 18.3521C119.717 18.3521 112.485 18.2364 108.525 18.3521C107.293 18.388 105.819 18.2239 105.452 18.7725C104.936 19.5416 105.64 20.7251 106.238 21.225C106.925 21.8009 108.263 21.8662 108.744 21.925C111.959 22.316 118.688 22.0258 118.688 22.0258L117.522 26.9688C117.522 26.9688 108.013 27.4252 103.257 26.3384C102.318 26.1241 101.438 25.6913 100.843 25.0774C100.681 24.9095 100.54 24.6804 100.387 24.4828C100.264 24.325 99.9065 23.806 99.7461 23.396C98.6599 20.6239 99.8734 15.313 101.063 12.4674C101.201 12.1375 101.374 11.7194 101.557 11.364C101.785 10.9207 101.978 10.4205 102.16 10.1555C102.283 9.97275 102.435 9.85496 102.562 9.68258C102.709 9.47874 102.88 9.28114 103.038 9.1049C103.477 8.61713 103.975 8.27237 104.574 7.84393C106.556 6.42304 110.142 5.31962 114.45 5.74212C116.071 5.90174 118.521 6.45657 119.717 8.054C120.037 8.48065 120.195 9.32743 120.375 9.94545Z" fill="#CFCFCF"/>
<path fill-rule="evenodd" clip-rule="evenodd" d="M94.2048 5.93501L99.7373 5.90356C99.7373 5.90356 96.6541 19.9113 95.0828 26.7419H88.7183C84.2701 26.7419 80.3089 27.2694 78.6235 24.2197C76.9886 21.2586 78.5488 16.3889 79.2818 13.0807C79.7998 10.7395 80.8907 5.954 80.8907 5.954L86.6228 5.90356C86.6228 5.90356 85.0031 13.354 84.3293 17.074C84.0879 18.4065 83.5901 19.6612 84.1099 20.6468C84.6037 21.5844 85.2949 21.6514 87.4016 21.6977C88.069 21.7126 90.2547 21.6977 90.2547 21.6977L94.2048 5.93501Z" fill="#CFCFCF"/>
<path fill-rule="evenodd" clip-rule="evenodd" d="M68.3091 16.0232C68.8884 14.0519 69.7332 11.9145 69.6257 10.1385C69.5096 8.2387 67.8462 6.50895 66.773 6.14549C63.5405 5.05245 60.5142 6.58045 59.3116 7.82659C57.7554 9.44092 57.2287 11.3261 56.6779 13.9217C56.2677 15.8487 55.9318 17.8832 56.6779 19.386C57.9989 22.0426 62.1181 21.4626 66.5534 21.4878C67.2117 19.7981 67.756 17.9001 68.3091 16.0232ZM75.9902 8.24701C76.6222 12.6479 74.1973 17.5052 72.5271 21.7293C74.2301 21.8765 75.7225 21.7065 75.83 21.8281C75.9418 21.9859 74.6887 26.8702 74.2518 26.8827C72.9001 26.9165 68.4212 26.9521 66.5534 26.9521C60.4591 26.9521 54.7577 27.3325 51.8501 24.4301C50.6694 23.2511 49.8531 21.2291 49.6554 19.8064C49.3261 17.4313 49.7388 14.8168 50.3138 12.6607C50.8339 10.7144 51.501 8.87749 52.5085 7.1961C55.0693 2.91503 59.5244 -0.26261 66.9924 0.47083C68.4407 0.613839 70.5211 1.22118 71.8204 1.94186C71.9103 1.9926 72.2244 2.23203 72.2966 2.27416C74.0523 3.34406 75.6522 5.89745 75.9902 8.24701Z" fill="#CFCFCF"/>
<path fill-rule="evenodd" clip-rule="evenodd" d="M49.0256 5.96052C48.6569 7.56833 48.2882 9.39066 47.8997 10.9795H41.7549C42.2311 9.21827 42.5955 7.46746 43.0716 5.9353C45.038 5.9353 46.8662 5.96052 49.0256 5.96052Z" fill="#CFCFCF"/>
<path fill-rule="evenodd" clip-rule="evenodd" d="M41.5356 12.4504H47.4607C46.6862 16.5573 45.1523 23.1817 43.9496 27.7927C43.1968 30.6784 42.6943 32.7844 40.6576 34.3079C40.4754 34.4447 40.3704 34.3797 40.2189 34.5183C39.8434 34.861 38.1075 35.2583 37.1465 35.3588C35.5838 35.5208 33.8173 35.3799 31.8971 35.3422C32.3996 33.5831 32.9681 31.4709 33.4158 29.8945C38.0967 30.4369 38.2154 26.1998 39.1215 22.1184C39.6461 19.7602 41.2351 13.3963 41.5356 12.4504Z" fill="#CFCFCF"/>
<path fill-rule="evenodd" clip-rule="evenodd" d="M27.7097 23.1693L27.5827 23.4844C25.4187 27.5195 21.5848 29.9954 16.116 30.1046C13.5595 30.155 11.1235 29.5269 9.53227 28.8436C6.09803 27.3661 3.20967 24.6258 1.63212 21.6979C-0.630726 17.5008 -1.03875 11.6624 3.66633 7.30151C3.73883 7.30151 3.09566 8.24709 3.16816 8.24709L3.03866 8.6506C-0.351897 18.8164 10.094 27.5281 20.2483 26.5317C22.6886 26.2923 25.8007 25.0124 27.7097 23.1693Z" fill="#029EBB"/>
<path fill-rule="evenodd" clip-rule="evenodd" d="M21.565 18.9657C24.1196 18.9826 26.788 17.8392 28.3681 16.2337C26.9857 19.5944 22.983 21.7547 17.6149 21.0675C13.1205 20.4917 8.8389 16.1601 8.39774 11.82C8.07522 8.66138 9.22493 6.77616 11.1191 4.4895C10.4608 5.68549 10.2148 6.60793 10.1534 7.19628C9.43374 14.029 15.8527 18.9301 21.565 18.9657Z" fill="#029EBB"/>
<path fill-rule="evenodd" clip-rule="evenodd" d="M28.1116 10.4791C27.7144 11.3514 25.4277 12.999 24.418 13.2049C20.4196 14.0205 17.8587 12.2047 16.5176 10.1385C16.318 9.82966 15.9494 8.98703 15.8834 8.77252C15.3632 7.07867 15.6024 4.51667 17.1542 3.19043C16.6867 4.4514 16.6186 5.9162 16.8645 6.86831C17.0136 7.4442 17.4677 8.44912 17.9222 9.08138C18.7494 10.2332 19.2739 10.513 20.3363 11.1245C20.8146 11.3998 21.328 11.6205 21.5498 11.6814C22.557 11.965 24.6835 12.7133 28.1116 10.4791Z" fill="#029EBB"/>
</svg>
