<svg width="65" height="63" viewBox="0 0 65 63" fill="none" xmlns="http://www.w3.org/2000/svg">
<path d="M0 0H65V62.2493H0V0Z" fill="#F7DF1E"/>
<path d="M17.0909 52.02L22.0651 49.137C23.0248 50.7665 23.8977 52.1452 25.9917 52.1452C27.9988 52.1452 29.2643 51.3932 29.2643 48.4685V28.5784H35.3726V48.5512C35.3726 54.6101 31.6641 57.368 26.2535 57.368C21.3671 57.368 18.5306 54.9443 17.0908 52.0195" fill="#161616"/>
<path d="M38.6905 51.3931L43.6641 48.6353C44.9734 50.683 46.675 52.1871 49.6855 52.1871C52.2164 52.1871 53.8304 50.9752 53.8304 49.3038C53.8304 47.2981 52.1725 46.5877 49.38 45.4181L47.8533 44.7908C43.4462 42.9944 40.5227 40.738 40.5227 35.9744C40.5227 31.5869 44.0132 28.2439 49.4675 28.2439C53.3507 28.2439 56.1432 29.5394 58.15 32.9241L53.3941 35.8489C52.3469 34.0522 51.2128 33.342 49.4676 33.342C47.6786 33.342 46.5441 34.4284 46.5441 35.8489C46.5441 37.6039 47.6786 38.3144 50.2963 39.4009L51.8233 40.0277C57.0155 42.1589 59.939 44.3315 59.939 49.2202C59.939 54.4855 55.6195 57.3684 49.8165 57.3684C44.1444 57.3684 40.4792 54.7779 38.6906 51.3931" fill="#161616"/>
</svg>
