<svg width="68" height="62" viewBox="0 0 68 62" fill="none" xmlns="http://www.w3.org/2000/svg">
<g clip-path="url(#clip0_95324_18)">
<path d="M66.7176 28.2378L37.0281 1.16946C35.3194 -0.389496 32.5462 -0.389496 30.8353 1.16946L24.6702 6.79064L32.491 13.9214C34.3084 13.3614 36.3925 13.7371 37.8412 15.0579C39.2968 16.3873 39.7059 18.3037 39.0769 19.9661L46.614 26.8384C48.4375 26.2657 50.5415 26.6362 51.998 27.9663C54.0334 29.8215 54.0334 32.8282 51.998 34.6846C49.9619 36.5412 46.6642 36.5412 44.6271 34.6846C43.0961 33.2872 42.7178 31.237 43.4929 29.5173L36.4639 23.1085L36.4631 39.9737C36.9727 40.2034 37.4381 40.5069 37.8412 40.8722C39.8767 42.7274 39.8767 45.7344 37.8412 47.5922C35.8052 49.4478 32.5059 49.4478 30.4728 47.5922C28.4373 45.7344 28.4373 42.7276 30.4728 40.8725C30.9606 40.4275 31.5403 40.0751 32.1783 39.8357V22.8133C31.5393 22.5754 30.9593 22.2228 30.4728 21.7765C28.9305 20.3723 28.5597 18.3091 29.35 16.5825L21.6405 9.55254L1.28297 28.1126C-0.427656 29.673 -0.427656 32.2017 1.28297 33.7609L30.9729 60.8297C32.6822 62.3889 35.4548 62.3889 37.1662 60.8297L66.7173 33.8866C68.4274 32.3269 68.4277 29.7968 66.7176 28.2378Z" fill="#DE4C36"/>
</g>
<defs>
<clipPath id="clip0_95324_18">
<rect width="68" height="62" fill="white"/>
</clipPath>
</defs>
</svg>
