<svg width="46" height="63" viewBox="0 0 46 63" fill="none" xmlns="http://www.w3.org/2000/svg">
<path d="M4.16571 57.2495L0 12.2334H45.7746L41.6044 57.2424L22.8592 62.2493L4.16571 57.2495Z" fill="#E53D20"/>
<path d="M22.8873 58.4224L38.0343 54.3765L41.598 15.9143H22.8873V58.4224Z" fill="#F15123"/>
<path d="M22.8873 32.61H15.3044L14.7806 26.9563H22.8873V21.4352H22.8675H8.51785L8.65507 22.9164L10.0635 38.1309H22.8873V32.61Z" fill="#EDEDED"/>
<path d="M22.8873 46.9487L22.8622 46.9552L16.4802 45.2948L16.072 40.8916H12.9709H10.3195L11.1224 49.5604L22.8609 52.7L22.8873 52.6929V46.9487Z" fill="#EDEDED"/>
<path d="M4.25882 0.000133557H7.17105V2.77216H9.83493V0.000133557H12.7473V8.39453H9.83505V5.58365H7.17118V8.39453H4.25903V0.000133557H4.25882Z" fill="#AAAAAA"/>
<path d="M16.5769 2.78386H14.0131V0.000133557H22.0541V2.78386H19.4892V8.39453H16.5771V2.78386H16.5769Z" fill="#AAAAAA"/>
<path d="M23.3303 0.000133557H26.3669L28.2348 2.94965L30.1008 0.000133557H33.1386V8.39453H30.2384V4.2338L28.2348 7.21851H28.1848L26.1798 4.2338V8.39453H23.3303V0.000133557Z" fill="#AAAAAA"/>
<path d="M34.588 0.000133557H37.501V5.61986H41.5963V8.39453H34.588V0.000133557Z" fill="#AAAAAA"/>
<path d="M22.8675 32.6101V38.131H29.9239L29.2588 45.2914L22.8675 46.9534V52.6973L34.6153 49.5604L34.7014 48.6277L36.0481 34.0926L36.1879 32.6101H34.6437H22.8675Z" fill="white"/>
<path d="M22.8675 21.4355V26.9565H36.691H36.7093L36.8243 25.7155L37.0854 22.9167L37.2224 21.4355H22.8675" fill="white"/>
</svg>
