<svg width="96" height="71" viewBox="0 0 96 71" fill="none" xmlns="http://www.w3.org/2000/svg">
<path d="M82.6342 40.7435C79.2779 40.7622 76.3717 41.5571 73.9342 42.7406C73.0342 40.9841 72.1342 39.4493 71.9844 38.3031C71.8156 36.9718 71.6094 36.1581 71.8156 34.5682C72.0217 32.9779 72.9592 30.7222 72.9592 30.5373C72.9402 30.3709 72.7527 29.5573 70.8217 29.5388C68.8906 29.5204 67.2217 29.9086 67.0342 30.4079C66.8467 30.9071 66.4717 32.0534 66.2279 33.2368C65.8904 34.9748 62.3654 41.1318 60.3592 44.3675C59.7029 43.1102 59.1404 42.0008 59.0277 41.1131C58.8592 39.7821 58.6527 38.9683 58.8592 37.3784C59.0654 35.7881 60.0029 33.5326 60.0029 33.3477C59.9842 33.1813 59.7967 32.3677 57.8656 32.3493C55.9342 32.3308 54.2656 32.7191 54.0781 33.2183C53.8906 33.7175 53.6844 34.9008 53.2719 36.0472C52.8779 37.1935 48.1904 47.4737 46.9717 50.1547C46.3529 51.523 45.8094 52.6138 45.4154 53.3534C45.0217 54.093 45.3967 53.4089 45.3592 53.4829C45.0217 54.1115 44.8342 54.4628 44.8342 54.4628V54.4815C44.5717 54.9437 44.2904 55.3873 44.159 55.3873C44.0653 55.3873 43.8777 54.1485 44.1965 52.4476C44.8902 48.8789 46.5777 43.3138 46.5592 43.1104C46.5592 43.0179 46.8778 42.0378 45.4715 41.5388C44.1028 41.0396 43.6154 41.8716 43.5028 41.8716C43.3903 41.8716 43.2965 42.1674 43.2965 42.1674C43.2965 42.1674 44.8152 35.8996 40.3902 35.8996C37.6152 35.8996 33.7902 38.8765 31.8965 41.5944C30.6965 42.2416 28.1465 43.6096 25.4465 45.0705C24.4152 45.6251 23.3465 46.2168 22.334 46.753L22.1279 46.5308C16.7654 40.8914 6.84669 36.8977 7.25919 29.317C7.40919 26.562 8.38419 19.2956 26.3094 10.4946C40.9906 3.28364 52.7469 5.26202 54.7904 9.66254C57.6967 15.949 48.5092 27.6344 33.2469 29.317C27.4344 29.9641 24.3779 27.7454 23.6094 26.9133C22.8031 26.0443 22.6906 26.0073 22.3906 26.1737C21.9031 26.4326 22.2031 27.2092 22.3906 27.6714C22.8406 28.8362 24.7156 30.9071 27.9031 31.9425C30.6967 32.8485 37.5219 33.3477 45.7719 30.2045C55.0156 26.673 62.2344 16.8735 60.1156 8.6826C57.9594 0.343795 43.9344 -2.39266 30.6781 2.24822C22.7842 5.02166 14.2342 9.34822 8.08419 15.0245C0.771688 21.7547 -0.390813 27.6344 0.0966871 30.075C1.80312 38.7836 13.9717 44.4599 18.8467 48.6571C18.6029 48.7863 18.3779 48.9157 18.1717 49.0269C15.7342 50.21 6.45294 54.999 4.12794 60.065C1.50294 65.7967 4.54044 69.9201 6.56544 70.4748C12.8279 72.1943 19.2404 69.1066 22.7092 64.0219C26.159 58.9373 25.7467 52.3365 24.1529 49.3227L24.0965 49.2118L26.009 48.1024C27.2467 47.3813 28.4654 46.7157 29.534 46.1423C28.9342 47.7509 28.5027 49.6553 28.2779 52.4288C28.0154 55.6831 29.3654 59.8986 31.1467 61.5626C31.9342 62.2835 32.8717 62.3022 33.4529 62.3022C35.5154 62.3022 36.4529 60.6195 37.4842 58.6043C38.7592 56.1452 39.8842 53.2978 39.8842 53.2978C39.8842 53.2978 38.4779 61.0079 42.3217 61.0079C43.7279 61.0079 45.1342 59.2144 45.7717 58.29V58.3085C45.7717 58.3085 45.8092 58.253 45.8842 58.1236C45.9629 58.0088 46.0379 57.8918 46.1092 57.7724V57.7355C46.6717 56.774 47.9279 54.5737 49.8029 50.9313C52.2215 46.2349 54.5467 40.3553 54.5467 40.3553C54.5467 40.3553 54.7717 41.7974 55.4654 44.1641C55.8778 45.5695 56.7777 47.104 57.4715 48.6016C56.909 49.3782 56.5715 49.8221 56.5715 49.8221L56.5902 49.8406C56.1404 50.4323 55.634 51.0611 55.1092 51.6896C53.1967 53.9453 50.9092 56.5155 50.6092 57.2551C50.2529 58.1239 50.3279 58.7711 51.0217 59.289C51.5279 59.6587 52.4279 59.7325 53.3842 59.6587C55.1092 59.5476 56.3092 59.1226 56.9092 58.8635C57.8467 58.5307 58.9154 58.0315 59.9467 57.2919C61.8217 55.9239 62.9654 53.9824 62.8529 51.3939C62.7967 49.9702 62.3279 48.565 61.7467 47.2337C61.9154 46.9934 62.0844 46.7528 62.2529 46.4942C65.2154 42.2229 67.5029 37.5267 67.5029 37.5267C67.5029 37.5267 67.7279 38.9689 68.4217 41.3356C68.7777 42.5374 69.4904 43.8503 70.1279 45.1446C67.3529 47.3818 65.6092 49.9704 65.0092 51.6714C63.9029 54.8147 64.7654 56.2384 66.3967 56.5712C67.1277 56.7191 68.1779 56.3863 68.9652 56.0535C69.9402 55.7391 71.1215 55.2028 72.2092 54.4079C74.0842 53.0397 75.8842 51.1352 75.7904 48.5652C75.7342 47.3819 75.4154 46.217 74.9842 45.1076C77.3467 44.1462 80.4027 43.5915 84.2842 44.0537C92.6279 45.0152 94.2779 50.1553 93.9594 52.3001C93.6406 54.4451 91.8969 55.6282 91.3154 55.998C90.7342 56.3493 90.5467 56.4789 90.6029 56.7376C90.6779 57.126 90.9404 57.1074 91.4467 57.0336C92.1404 56.9225 95.8342 55.2771 95.9842 51.3205C96.2092 46.2351 91.3154 40.6882 82.6342 40.7435ZM18.2842 62.136C15.5279 65.1128 11.6467 66.2407 9.99669 65.2792C8.21544 64.2623 8.909 59.8803 12.3029 56.7185C14.3654 54.7956 17.0467 53.0206 18.8092 51.9297C19.2029 51.6894 19.8029 51.3382 20.5154 50.9128C20.6279 50.839 20.7029 50.8019 20.7029 50.8019C20.8342 50.7279 20.9842 50.6355 21.1342 50.543C22.3904 55.0545 21.1904 59.0112 18.2842 62.136ZM38.4404 48.6201C37.4842 50.9313 35.4592 56.8665 34.2404 56.5336C33.1902 56.2563 32.5529 51.7633 34.034 47.3258C34.784 45.0884 36.3778 42.4261 37.3153 41.3905C38.8342 39.7264 40.484 39.1717 40.8967 39.8558C41.3842 40.7435 39.0404 47.1779 38.4404 48.6201ZM55.0717 56.4597C54.6592 56.6632 54.2842 56.811 54.1154 56.7002C53.9842 56.6263 54.284 56.3489 54.284 56.3489C54.284 56.3489 56.3652 54.1487 57.1902 53.1317C57.659 52.5403 58.2215 51.8561 58.8215 51.0794V51.3013C58.8217 53.9636 56.2342 55.7386 55.0717 56.4597ZM67.8965 53.5753C67.5965 53.3534 67.6342 52.6693 68.6465 50.5245C69.0404 49.674 69.9402 48.2503 71.4965 46.9006C71.684 47.4552 71.7967 47.9913 71.7777 48.4907C71.7592 51.8188 69.3592 53.0576 67.8965 53.5753Z" fill="#CF649A"/>
</svg>
