<svg width="20" height="20" viewBox="0 0 20 20" fill="none" xmlns="http://www.w3.org/2000/svg">
<path d="M18.5718 17.2381L17.8832 17.6451L19.5046 19.8H1.18689L3.11828 17.2333H13.6327V16.5H2.89687C2.82876 16.5 2.76169 16.5149 2.70163 16.5433C2.64157 16.5718 2.59036 16.613 2.55256 16.6632L0.069525 19.9632C0.024309 20.0235 0.00012929 20.0943 0 20.1667V21.2667C0 21.4612 0.0872015 21.6477 0.242421 21.7852C0.397641 21.9227 0.608164 22 0.827678 22H19.8643C20.0838 22 20.2943 21.9227 20.4495 21.7852C20.6047 21.6477 20.6919 21.4612 20.6919 21.2667V20.1667C20.6918 20.0943 20.6676 20.0235 20.6224 19.9632L18.5718 17.2381ZM0.827678 21.2667V20.5333H19.8643V21.2667H0.827678Z" fill="black"/>
<path d="M18.6228 0H2.06921C1.74025 0.0008705 1.42503 0.117043 1.19241 0.323144C0.959798 0.529246 0.82868 0.80853 0.827698 1.1V10.6333C0.82868 10.9248 0.959798 11.2041 1.19241 11.4102C1.42503 11.6163 1.74025 11.7325 2.06921 11.7333H7.86296V13.2H6.2076C6.09785 13.2 5.99258 13.2386 5.91497 13.3074C5.83736 13.3762 5.79376 13.4694 5.79376 13.5667V15.0333C5.79376 15.1306 5.83736 15.2238 5.91497 15.2926C5.99258 15.3614 6.09785 15.4 6.2076 15.4H14.4844C14.5941 15.4 14.6994 15.3614 14.777 15.2926C14.8546 15.2238 14.8982 15.1306 14.8982 15.0333V13.5667C14.8982 13.4694 14.8546 13.3762 14.777 13.3074C14.6994 13.2386 14.5941 13.2 14.4844 13.2H12.829V11.7333H18.6228C18.9517 11.7325 19.267 11.6163 19.4996 11.4102C19.7322 11.2041 19.8633 10.9248 19.8643 10.6333V1.1C19.8633 0.80853 19.7322 0.529246 19.4996 0.323144C19.267 0.117043 18.9517 0.0008705 18.6228 0V0ZM14.0705 13.9333V14.6667H6.62144V13.9333H14.0705ZM8.69064 13.2V11.7333H12.0013V13.2H8.69064ZM19.0366 10.6333C19.0366 10.7306 18.993 10.8238 18.9154 10.8926C18.8378 10.9614 18.7325 11 18.6228 11H2.06921C1.95946 11 1.8542 10.9614 1.77659 10.8926C1.69898 10.8238 1.65538 10.7306 1.65538 10.6333V9.53333H19.0366V10.6333ZM19.0366 8.8H1.65538V1.1C1.65538 1.00275 1.69898 0.909491 1.77659 0.840728C1.8542 0.771964 1.95946 0.733333 2.06921 0.733333H18.6228C18.7325 0.733333 18.8378 0.771964 18.9154 0.840728C18.993 0.909491 19.0366 1.00275 19.0366 1.1V8.8Z" fill="black"/>
<path d="M16.5535 9.8999H17.3812V10.6332H16.5535V9.8999Z" fill="black"/>
<path d="M6.62139 8.06655H8.27674C8.3865 8.06655 8.49176 8.02792 8.56937 7.95916C8.64698 7.8904 8.69058 7.79713 8.69058 7.69989V7.33322H12.0013V7.69989C12.0013 7.79713 12.0449 7.8904 12.1225 7.95916C12.2001 8.02792 12.3054 8.06655 12.4151 8.06655H14.0705C14.1802 8.06655 14.2855 8.02792 14.3631 7.95916C14.4407 7.8904 14.4843 7.79713 14.4843 7.69989V6.23322C14.4843 6.13597 14.4407 6.04271 14.3631 5.97395C14.2855 5.90518 14.1802 5.86655 14.0705 5.86655H13.6566V3.66655H14.0705C14.1802 3.66655 14.2855 3.62792 14.3631 3.55916C14.4407 3.4904 14.4843 3.39713 14.4843 3.29989V1.83322C14.4843 1.73597 14.4407 1.64271 14.3631 1.57395C14.2855 1.50518 14.1802 1.46655 14.0705 1.46655H12.4151C12.3054 1.46655 12.2001 1.50518 12.1225 1.57395C12.0449 1.64271 12.0013 1.73597 12.0013 1.83322V2.19989H8.69058V1.83322C8.69058 1.73597 8.64698 1.64271 8.56937 1.57395C8.49176 1.50518 8.3865 1.46655 8.27674 1.46655H6.62139C6.51163 1.46655 6.40637 1.50518 6.32876 1.57395C6.25115 1.64271 6.20755 1.73597 6.20755 1.83322V3.29989C6.20755 3.39713 6.25115 3.4904 6.32876 3.55916C6.40637 3.62792 6.51163 3.66655 6.62139 3.66655H7.03523V5.86655H6.62139C6.51163 5.86655 6.40637 5.90518 6.32876 5.97395C6.25115 6.04271 6.20755 6.13597 6.20755 6.23322V7.69989C6.20755 7.79713 6.25115 7.8904 6.32876 7.95916C6.40637 8.02792 6.51163 8.06655 6.62139 8.06655ZM13.6566 7.33322H12.829V6.59989H13.6566V7.33322ZM12.829 2.19989H13.6566V2.93322H12.829V2.19989ZM7.03523 2.19989H7.86291V2.93322H7.03523V2.19989ZM7.86291 3.66655H8.27674C8.3865 3.66655 8.49176 3.62792 8.56937 3.55916C8.64698 3.4904 8.69058 3.39713 8.69058 3.29989V2.93322H12.0013V3.29989C12.0013 3.39713 12.0449 3.4904 12.1225 3.55916C12.2001 3.62792 12.3054 3.66655 12.4151 3.66655H12.829V5.86655H12.4151C12.3054 5.86655 12.2001 5.90518 12.1225 5.97395C12.0449 6.04271 12.0013 6.13597 12.0013 6.23322V6.59989H8.69058V6.23322C8.69058 6.13597 8.64698 6.04271 8.56937 5.97395C8.49176 5.90518 8.3865 5.86655 8.27674 5.86655H7.86291V3.66655ZM7.03523 6.59989H7.86291V7.33322H7.03523V6.59989Z" fill="black"/>
<path d="M6.62143 18.3334H12.4152V19.0667H6.62143V18.3334Z" fill="black"/>
<path d="M21.8796 12.7746L20.7085 11.737C20.67 11.7028 20.6241 11.6758 20.5737 11.6576C20.5232 11.6393 20.4692 11.6302 20.4147 11.6306C20.3608 11.6302 20.3073 11.6393 20.2576 11.6576C20.2078 11.6759 20.1627 11.7029 20.125 11.737L14.563 16.665C14.5176 16.705 14.4836 16.754 14.4637 16.808L14.1698 17.5853C14.1462 17.6497 14.143 17.7187 14.1605 17.7846C14.178 17.8505 14.2156 17.911 14.2692 17.9593L13.6856 18.48L14.2692 18.997L14.8568 18.48C14.8948 18.5138 14.9399 18.5406 14.9896 18.5588C15.0394 18.5771 15.0927 18.5864 15.1465 18.5863C15.1914 18.5859 15.236 18.5797 15.2789 18.568L16.1563 18.3076C16.2171 18.29 16.2724 18.2598 16.3177 18.2196L21.8796 13.2916C21.9567 13.2229 22 13.13 22 13.0331C22 12.9363 21.9567 12.8433 21.8796 12.7746V12.7746ZM15.8045 17.6403L15.2624 17.798L15.0348 17.6L15.2168 17.1196L19.2435 13.552L19.8311 14.069L15.8045 17.6403ZM20.4147 13.552L19.8311 13.035L20.4147 12.5143L21.0023 13.035L20.4147 13.552Z" fill="black"/>
</svg>
