<svg width="20" height="20" viewBox="0 0 20 20" fill="none" xmlns="http://www.w3.org/2000/svg">
<path d="M-6.01032e-07 6.78648L-2.73196e-07 13.9691C-1.22337e-07 17.2743 2.79875 19.9546 6.25 19.9546L13.75 19.9546C17.2013 19.9546 20 17.2743 20 13.9691L20 6.78648C20 3.48128 17.2012 0.800973 13.75 0.800973L6.25 0.800974C2.79875 0.800974 -7.5189e-07 3.48128 -6.01032e-07 6.78648ZM13.75 2.59663C16.1625 2.59663 18.125 4.47607 18.125 6.78648L18.125 13.9691C18.125 16.2795 16.1625 18.1589 13.75 18.1589L6.25 18.1589C3.8375 18.1589 1.875 16.2795 1.875 13.9691L1.875 6.78648C1.875 4.47607 3.8375 2.59663 6.25 2.59663L13.75 2.59663Z" fill="white"/>
<path d="M5 10.3778C5 13.0222 7.23875 15.1662 10 15.1662C12.7613 15.1662 15 13.0222 15 10.3778C15 7.73338 12.7612 5.58938 10 5.58938C7.23875 5.58938 5 7.73339 5 10.3778ZM13.125 10.3778C13.125 12.0274 11.7225 13.3705 10 13.3705C8.27625 13.3705 6.875 12.0274 6.875 10.3778C6.875 8.72818 8.27625 7.38503 10 7.38503C11.7225 7.38503 13.125 8.72818 13.125 10.3778Z" fill="white"/>
<path d="M5.29123 5.23025C5.29123 4.87786 4.99295 4.5922 4.62499 4.5922C4.25703 4.5922 3.95874 4.87786 3.95874 5.23025C3.95874 5.58264 4.25703 5.86831 4.62499 5.86831C4.99295 5.86831 5.29123 5.58264 5.29123 5.23025Z" fill="white"/>
</svg>
