<svg width="30" height="29" viewBox="0 0 30 29" fill="none" xmlns="http://www.w3.org/2000/svg">
<path d="M15 28.7304C23.2863 28.7304 30 22.3008 30 14.3652C30 6.42963 23.2863 0 15 0C6.71375 0 0 6.42963 0 14.3652C0 22.3008 6.71375 28.7304 15 28.7304ZM6.86375 14.054L21.3263 8.7137C21.9975 8.48146 22.5837 8.87052 22.3662 9.84256L22.3675 9.84137L19.905 20.9517C19.7225 21.7394 19.2337 21.9309 18.55 21.5598L14.8 18.913L12.9912 20.5818C12.7912 20.7733 12.6225 20.9349 12.235 20.9349L12.5013 17.2802L19.4513 11.2671C19.7537 11.0121 19.3837 10.8685 18.985 11.1223L10.3963 16.3009L6.69375 15.1948C5.89 14.9506 5.8725 14.4251 6.86375 14.054Z" fill="white"/>
</svg>
