<svg width="22" height="22" viewBox="0 0 22 22" fill="none" xmlns="http://www.w3.org/2000/svg">
<path d="M2.57812 14.0406L0.937277 13.6544C0.456371 14.6896 0 15.8525 0 17.1922C0 18.5062 0.437895 19.655 0.937277 20.7299L6.48828 19.4234V22L8.42188 20.9685L10.3555 22V19.4248L15.8632 20.7307C16.3403 19.7035 16.8008 18.5375 16.8008 17.1922C16.8008 16.9603 16.7847 16.7294 16.7577 16.5045H22V0H2.57812V14.0406ZM1.67277 19.1483C1.50511 18.6753 1.28906 17.9238 1.28906 17.1922C1.28906 16.4604 1.50515 15.7088 1.67277 15.2359L6.48828 16.3693V18.015L1.67277 19.1483ZM9.06641 19.7746L8.42188 19.4308L7.77734 19.7746V16.5044H9.06641V19.7746ZM15.1283 19.1475L10.3555 18.0159V16.3684L15.1283 15.2367C15.2959 15.7099 15.5117 16.4609 15.5117 17.1921C15.5117 17.9235 15.2959 18.6746 15.1283 19.1475V19.1475ZM20.7109 1.37537V15.1291H16.4593C16.248 14.4394 16.0777 14.1138 15.8632 13.6536L9.64021 15.1291H7.20311L3.86719 14.3439V1.37537H20.7109Z" fill="black"/>
<path d="M7.77734 2.75073H16.8008V4.12611H7.77734V2.75073Z" fill="black"/>
<path d="M5.15625 8.25232H19.4219V9.62769H5.15625V8.25232Z" fill="black"/>
<path d="M7.77734 11.0029H16.8008V12.3783H7.77734V11.0029Z" fill="black"/>
<path d="M9.06641 5.50146H10.3555V6.87684H9.06641V5.50146Z" fill="black"/>
<path d="M11.6445 5.50146H12.9336V6.87684H11.6445V5.50146Z" fill="black"/>
<path d="M14.2227 5.50146H15.5117V6.87684H14.2227V5.50146Z" fill="black"/>
</svg>
