<svg width="22" height="22" viewBox="0 0 22 22" fill="none" xmlns="http://www.w3.org/2000/svg">
<g clip-path="url(#clip0_11_59)">
<path d="M19.8 3.30005H9.90002V4.03338H19.8V3.30005Z" fill="black"/>
<path d="M16.1334 4.7666H9.90002V5.49993H16.1334V4.7666Z" fill="black"/>
<path d="M16.1334 6.2334H9.90002V6.96673H16.1334V6.2334Z" fill="black"/>
<path d="M19.8 1.83337H12.8333V2.56671H19.8V1.83337Z" fill="black"/>
<path d="M12.1 1.83337H11.3667V2.56671H12.1V1.83337Z" fill="black"/>
<path d="M11.3667 14.6666H10.6333V15.4H11.3667V14.6666Z" fill="black"/>
<path d="M6.12591 2.45926L5.60744 1.9408L4.87411 2.67413C4.73097 2.81731 4.73097 3.04941 4.87411 3.1926L5.60744 3.92593L6.12591 3.40746L5.65181 2.93336L6.12591 2.45926Z" fill="black"/>
<path d="M9.05924 2.67413L8.3259 1.9408L7.80743 2.45926L8.28154 2.93336L7.80743 3.40746L8.3259 3.92593L9.05924 3.1926C9.20238 3.04941 9.20238 2.81731 9.05924 2.67413Z" fill="black"/>
<path d="M6.98573 1.71703L6.25171 3.91699L6.947 4.14898L7.68102 1.94901L6.98573 1.71703Z" fill="black"/>
<path d="M19.0667 11.3666V8.43328H18.3333V11.3666H17.6V7.69995H16.8667V11.3666H16.1333V9.53329H15.4V11.3666H14.6667V9.16662H13.9333V11.3666H13.2V9.89995H12.4667V11.3666H11.7333V12.1H19.8V11.3666H19.0667Z" fill="black"/>
<path d="M19.4333 0H2.56667C1.35213 0.00119167 0.36786 0.985462 0.366669 2.2V9.3962V9.3995V13.5667V14.6667C0.36786 15.8812 1.35213 16.8655 2.56667 16.8667H7.10674L5.64007 19.8H3.66667C3.05915 19.8 2.56667 20.2925 2.56667 20.9C2.56667 21.5075 3.05915 22 3.66667 22H18.3333C18.9409 22 19.4333 21.5075 19.4333 20.9C19.4333 20.2925 18.9409 19.8 18.3333 19.8H16.3599L14.8933 16.8667H19.4333C20.6479 16.8655 21.6321 15.8812 21.6333 14.6667V2.2C21.6321 0.985462 20.6479 0.00119167 19.4333 0ZM1.1 5.159L1.93344 6.1512C2.0031 6.2342 2.10595 6.2821 2.2143 6.2821H3.33667C3.44502 6.2821 3.54787 6.2342 3.61754 6.1512L4.45134 5.159L5.27414 5.4263L5.36507 6.71807C5.37259 6.8261 5.42749 6.92528 5.51504 6.98903L6.42327 7.64903C6.51113 7.71247 6.62241 7.73405 6.7276 7.70807L7.98637 7.3953L8.4953 8.09527L7.80927 9.19527C7.75244 9.28748 7.73928 9.4001 7.77334 9.5029L8.12057 10.5703C8.15398 10.6732 8.23112 10.7562 8.3314 10.7969L9.53334 11.2842V12.1495L8.33067 12.6368C8.23016 12.6773 8.15288 12.7605 8.11984 12.8638L8.00984 13.2H5.89747C6.71917 11.4796 5.9906 9.4188 4.2702 8.5971C3.25971 8.11447 2.07786 8.15196 1.1 8.6977V5.159ZM1.1 9.57C2.28599 8.64476 3.99749 8.85615 4.92269 10.0422C5.63704 10.9578 5.69218 12.2258 5.06 13.2H1.1V9.57ZM18.3333 20.5333C18.5358 20.5333 18.7 20.6975 18.7 20.9C18.7 21.1025 18.5358 21.2667 18.3333 21.2667H3.66667C3.46418 21.2667 3.3 21.1025 3.3 20.9C3.3 20.6975 3.46418 20.5333 3.66667 20.5333H18.3333ZM15.5401 19.8H6.45994L7.9266 16.8667H14.0734L15.5401 19.8ZM20.9 14.6667C20.9 15.4767 20.2433 16.1333 19.4333 16.1333H2.56667C1.75666 16.1333 1.1 15.4767 1.1 14.6667V13.9333H5.2514H5.2547H20.9V14.6667ZM20.9 13.2H8.8935L10.0379 12.7362C10.1761 12.6801 10.2666 12.5458 10.2667 12.3966V11.0367C10.2667 10.8873 10.1762 10.7529 10.0379 10.6968L8.76334 10.1812L8.52207 9.43873L9.2488 8.27273C9.32764 8.14605 9.32181 7.98426 9.23414 7.86353L8.4348 6.76353C8.34703 6.64267 8.19477 6.58712 8.0498 6.6231L6.7166 6.9531L6.08667 6.4955L5.99024 5.12783C5.97974 4.97874 5.87978 4.85091 5.7376 4.8048L4.4451 4.3846C4.30288 4.33932 4.14741 4.384 4.05094 4.4979L3.16837 5.5484H2.38627L1.50334 4.4979C1.40681 4.38387 1.25111 4.33913 1.1088 4.3846L1.1 4.3879V2.2C1.1 1.38999 1.75666 0.733333 2.56667 0.733333H19.4333C20.2433 0.733333 20.9 1.38999 20.9 2.2V13.2Z" fill="black"/>
</g>
<defs>
<clipPath id="clip0_11_59">
<rect width="22" height="22" fill="white"/>
</clipPath>
</defs>
</svg>
