<svg width="22" height="22" viewBox="0 0 22 22" fill="none" xmlns="http://www.w3.org/2000/svg">
<path d="M19.0243 14.373L17.3929 13.9939L13.8436 12.1591V11.7387C14.8712 11.1252 15.5769 10.1875 15.7081 9.11265C16.2235 9.04699 16.6183 8.69254 16.6183 8.26646V7.11039C16.6183 7.10592 16.6177 7.10154 16.6174 7.09707V5.63261C16.8228 5.51625 16.9531 5.32672 16.9531 5.11411V3.77391L19.4025 3.4437C19.8051 3.38943 20.0946 3.13638 20.123 2.81399C20.1513 2.4916 19.909 2.20921 19.5199 2.11128L11.2625 0.0325381C11.0902 -0.0108603 10.9082 -0.0108174 10.736 0.0324951L2.47838 2.11128C2.08927 2.20921 1.84692 2.4916 1.87531 2.81395C1.89334 3.01878 2.01701 3.19538 2.2079 3.31105V5.06362H2.1877C1.7227 5.06362 1.3444 5.36302 1.3444 5.73105V6.601L0.80003 9.12979C0.705944 9.56717 1.13158 9.96751 1.69349 9.96751H3.53661C4.09727 9.96751 4.52438 9.56812 4.43008 9.12975L3.8857 6.601V5.73105C3.8857 5.36302 3.5074 5.06362 3.0424 5.06362H3.02226V3.50115L5.04698 3.77408V5.11411C5.04698 5.32581 5.17668 5.51505 5.38103 5.63158L5.3818 7.11052V8.26646C5.3818 8.69258 5.77665 9.04699 6.29203 9.11265C6.42315 10.1869 7.12806 11.1242 8.1547 11.7377V12.1601L4.60614 13.9945L2.97606 14.3732C1.23175 14.7784 0.000108522 16.0459 0.000108522 17.5192V18.4796C0.000108522 18.6576 0.182363 18.8019 0.40729 18.8019C0.632217 18.8019 0.814471 18.6576 0.814471 18.4796V17.5192C0.814471 16.358 1.79762 15.3186 3.20544 14.9916L4.72428 14.6388L10.7921 17.4925C10.9153 17.5504 11.0783 17.5535 11.2081 17.4925L17.2764 14.6386L18.795 14.9915C20.2026 15.3185 21.1858 16.3579 21.1858 17.519V20.6315C21.1858 21.0308 20.7754 21.3556 20.271 21.3556H18.4763V19.9665C18.4763 19.7885 18.2941 19.6442 18.0691 19.6442C17.8443 19.6442 17.6619 19.7884 17.6619 19.9665V21.3556H4.33637V19.9665C4.33637 19.7885 4.15412 19.6442 3.92919 19.6442C3.70426 19.6442 3.52201 19.7884 3.52201 19.9665V21.3556H1.72916C1.22475 21.3556 0.814362 21.0308 0.814362 20.6315V19.9861C0.814362 19.8081 0.632108 19.6638 0.407181 19.6638C0.182254 19.6638 0 19.808 0 19.9861V20.6315C0 21.3861 0.775653 22 1.72911 22H20.2709C21.2243 22 22 21.3861 22 20.6315V17.5189C22 16.0803 20.8104 14.788 19.0243 14.373V14.373ZM3.53656 9.32298H1.69349C1.63654 9.32298 1.59311 9.28272 1.60277 9.23799L2.09519 6.9505H3.13486L3.62728 9.23794C3.63689 9.28259 3.59378 9.32298 3.53656 9.32298V9.32298ZM3.07134 5.73105V6.30602H2.15866V5.73105C2.15866 5.71838 2.17163 5.70811 2.18765 5.70811H3.0423C3.05837 5.70806 3.07134 5.71838 3.07134 5.73105V5.73105ZM9.54378 16.0347L9.70584 16.2318L5.54885 14.2769L8.18744 12.9128C8.30709 14.024 8.76987 15.0933 9.54378 16.0347ZM9.54096 14.6436C10.4994 14.7513 11.5002 14.7514 12.4591 14.6436C12.2738 15.0044 12.0455 15.3527 11.7737 15.6833L11 16.6244L10.2263 15.6833C9.9546 15.3527 9.72626 15.0044 9.54096 14.6436V14.6436ZM12.4563 16.0347C13.2302 15.0933 13.693 14.024 13.8126 12.9128L16.4512 14.2768L12.2942 16.2318L12.4563 16.0347ZM14.8381 5.75262H15.8031V6.78808H15.3241C15.0561 6.78808 14.838 6.61552 14.838 6.40338V5.75262H14.8381ZM2.72518 2.72547L10.9829 0.646647C10.9935 0.643983 11.0049 0.64394 11.0156 0.64669L19.2732 2.72547C19.2903 2.72977 19.3137 2.73562 19.3107 2.76917C19.3077 2.80269 19.2836 2.80591 19.2659 2.80832L16.5357 3.17635L15.5107 3.07601C15.2876 3.05414 15.0843 3.1797 15.0566 3.3563C15.0291 3.53294 15.1876 3.69382 15.4108 3.71565L16.1388 3.78693V5.10813L5.86129 5.10783V3.78689L10.0746 3.37426C10.6883 3.31423 11.3105 3.31423 11.9238 3.37426L13.5185 3.53036C13.7416 3.55224 13.9449 3.42672 13.9726 3.25012C14.0002 3.07348 13.8416 2.9126 13.6185 2.89073L12.0238 2.73463C11.3442 2.66807 10.6547 2.66807 9.97469 2.73463L5.46345 3.17643L2.73246 2.80832C2.71476 2.80591 2.6906 2.80269 2.68761 2.76917C2.68468 2.73562 2.70808 2.72973 2.72518 2.72547V2.72547ZM6.19589 6.78808L6.19534 5.75262H7.16199V6.40343C7.16199 6.61552 6.94396 6.78812 6.67587 6.78812H6.19589V6.78808ZM7.09207 8.947C7.07111 8.68459 6.79553 8.47903 6.46473 8.47903C6.31657 8.47903 6.19605 8.38364 6.19605 8.26642V7.43261H6.67587C7.39289 7.43261 7.9763 6.97091 7.9763 6.40343V5.75262H14.0237V6.40343C14.0237 6.97091 14.6071 7.43261 15.3241 7.43261H15.8039V8.26642C15.8039 8.38364 15.6834 8.47903 15.5353 8.47903C15.2045 8.47903 14.9289 8.68459 14.9079 8.94705C14.7782 10.5742 13.0617 11.8489 11 11.8489C8.93828 11.8489 7.22177 10.5742 7.09207 8.947V8.947ZM11 12.4934C11.7242 12.4934 12.4125 12.3623 13.0293 12.1293V12.3335C13.0293 12.8845 12.9354 13.428 12.7545 13.9523C11.648 14.1192 10.397 14.126 9.24551 13.9523C9.06467 13.4281 8.97074 12.8846 8.97074 12.3335C8.97074 12.3267 8.96955 12.32 8.96901 12.3133C8.9689 12.312 8.96906 12.3106 8.96895 12.3093V12.1287C9.58618 12.3621 10.2751 12.4934 11 12.4934V12.4934Z" fill="black"/>
</svg>
